<?xml version="1.0" encoding="utf-8"?>
<!-- Generator: Adobe Illustrator 19.1.0, SVG Export Plug-In . SVG Version: 6.00 Build 0)  -->
<svg version="1.1" id="Layer_1" xmlns="http://www.w3.org/2000/svg" xmlns:xlink="http://www.w3.org/1999/xlink" x="0px" y="0px"
	 viewBox="0 0 612 792" style="enable-background:new 0 0 612 792;" xml:space="preserve">
<style type="text/css">
	.st0{fill-rule:evenodd;clip-rule:evenodd;fill:#FF7000;}
	.st1{fill-rule:evenodd;clip-rule:evenodd;fill:#7E4F2B;}
</style>
<g>
	<path class="st0" d="M168.3,251.9c12.1-16.1,31.3-26.5,53-26.5c36.5,0,66.2,29.7,66.2,66.2c0,36.5-29.7,66.2-66.2,66.2
		c-36.5,0-66.2-29.7-66.2-66.2c0-9.4,2-18.4,5.5-26.5h31.1c-6.3,7-10.1,16.3-10.1,26.5c0,21.9,17.8,39.7,39.7,39.7
		c21.9,0,39.7-17.8,39.7-39.7c0-21.9-17.8-39.7-39.7-39.7H168.3L168.3,251.9z"/>
	<polygon class="st0" points="486.1,225.4 353.7,225.4 353.7,251.9 486.1,251.9 486.1,225.4 	"/>
	<path class="st0" d="M414.4,265.2c3.5,8.1,5.5,17.1,5.5,26.5c0,36.5-29.7,66.2-66.2,66.2c-36.5,0-66.2-29.7-66.2-66.2
		c0-36.5,29.7-66.2,66.2-66.2c21.6,0,40.9,10.4,53,26.5h-48v0.3c-1.6-0.2-3.3-0.3-4.9-0.3c-21.9,0-39.7,17.8-39.7,39.7
		c0,21.9,17.8,39.7,39.7,39.7c21.9,0,39.7-17.8,39.7-39.7c0-10.2-3.8-19.5-10.1-26.5H414.4L414.4,265.2z"/>
	<path class="st0" d="M433.2,251.9c12.1-16.1,31.3-26.5,53-26.5c36.5,0,66.2,29.7,66.2,66.2c0,36.5-29.7,66.2-66.2,66.2
		c-36.5,0-66.2-29.7-66.2-66.2c0-9.4,2-18.4,5.5-26.5h31.1c-6.3,7-10.1,16.3-10.1,26.5c0,21.9,17.8,39.7,39.7,39.7
		c21.9,0,39.7-17.8,39.7-39.7c0-21.9-17.8-39.7-39.7-39.7c-1.6,0-3.2,0.1-4.7,0.3v-0.3H433.2L433.2,251.9z"/>
	<polygon class="st0" points="86.1,291.7 59.7,291.7 59.7,331.4 86.1,331.4 86.1,291.7 	"/>
	<polygon class="st0" points="221.2,225.4 123.8,225.4 123.8,251.9 221.2,251.9 221.2,225.4 	"/>
	<path class="st0" d="M86.1,318.2h-21c-3.5-8.1-5.5-17.1-5.5-26.5c0-36.5,29.7-66.2,66.2-66.2c21.6,0,40.9,10.4,53,26.5h-53
		c-21.9,0-39.7,17.8-39.7,39.7V318.2L86.1,318.2z"/>
	<polygon class="st0" points="313.9,172.5 287.5,172.5 287.5,291.7 313.9,291.7 313.9,172.5 	"/>
	<polygon class="st1" points="300.7,146 313.9,159.2 287.5,159.2 300.7,146 	"/>
	<polygon class="st1" points="72.9,357.9 59.7,344.6 86.1,344.6 72.9,357.9 	"/>
</g>
</svg>
